<svg width="27" height="26" viewBox="0 0 27 26" fill="none" xmlns="http://www.w3.org/2000/svg">
<path opacity="0.4" d="M24.194 17.4878V20.6664C24.194 22.2557 23.1345 23.3152 21.5452 23.3152H7.24146C7.67587 23.3152 8.12087 23.2516 8.53409 23.1139C8.65064 23.0715 8.76718 23.0292 8.88372 22.9762C9.25456 22.8278 9.61483 22.6159 9.93269 22.3405C10.028 22.2663 10.134 22.1709 10.2294 22.0756L10.2717 22.0332L17.4766 14.8389H21.5452C23.1345 14.8389 24.194 15.8985 24.194 17.4878Z" fill="url(#paint0_linear_65_122)"/>
<path opacity="0.6" d="M20.3479 11.9676L17.4766 14.839L10.2717 22.0332C11.0134 21.2703 11.4796 20.2214 11.4796 19.0771V8.84197L14.351 5.97063C15.4741 4.84752 16.9786 4.84752 18.1017 5.97063L20.3479 8.21685C21.471 9.33996 21.471 10.8445 20.3479 11.9676Z" fill="url(#paint1_linear_65_122)"/>
<path d="M8.83087 2.12451H5.65226C4.06296 2.12451 3.00342 3.18405 3.00342 4.77335V19.0771C3.00342 19.3632 3.03519 19.6493 3.08817 19.9247C3.11995 20.0625 3.15175 20.2002 3.19413 20.338C3.2471 20.4969 3.30008 20.6558 3.36366 20.8041C3.37425 20.8147 3.37426 20.8253 3.37426 20.8253C3.38486 20.8253 3.38486 20.8253 3.37426 20.8359C3.5226 21.1326 3.69211 21.4187 3.89343 21.6836C4.00997 21.8213 4.12654 21.9485 4.24309 22.0756C4.35964 22.2027 4.48677 22.3087 4.62451 22.4146L4.63511 22.4252C4.9 22.6266 5.18606 22.7961 5.48273 22.9444C5.49333 22.9338 5.49334 22.9338 5.49334 22.9444C5.65227 23.0186 5.81119 23.0716 5.98071 23.1245C6.11845 23.1669 6.25621 23.1987 6.39395 23.2305C6.66943 23.2835 6.95549 23.3153 7.24157 23.3153C7.67598 23.3153 8.12098 23.2517 8.5342 23.1139C8.65075 23.0716 8.76729 23.0292 8.88384 22.9762C9.25467 22.8279 9.61494 22.616 9.9328 22.3405C10.0282 22.2663 10.1341 22.171 10.2295 22.0756L10.2718 22.0332C11.0135 21.2703 11.4797 20.2214 11.4797 19.0771V4.77335C11.4797 3.18405 10.4202 2.12451 8.83087 2.12451ZM7.24157 20.6664C6.36215 20.6664 5.65226 19.9565 5.65226 19.0771C5.65226 18.1977 6.36215 17.4878 7.24157 17.4878C8.12098 17.4878 8.83087 18.1977 8.83087 19.0771C8.83087 19.9565 8.12098 20.6664 7.24157 20.6664Z" fill="url(#paint2_linear_65_122)"/>
<defs>
<linearGradient id="paint0_linear_65_122" x1="29.8449" y1="25.9792" x2="3.87109" y2="22.6912" gradientUnits="userSpaceOnUse">
<stop stop-color="#FFAA00"/>
<stop offset="1" stop-color="#CE8508"/>
</linearGradient>
<linearGradient id="paint1_linear_65_122" x1="24.8298" y1="27.3462" x2="7.86128" y2="26.6525" gradientUnits="userSpaceOnUse">
<stop stop-color="#FFAA00"/>
<stop offset="1" stop-color="#CE8508"/>
</linearGradient>
<linearGradient id="paint2_linear_65_122" x1="14.3051" y1="29.9752" x2="1.11857" y2="29.6413" gradientUnits="userSpaceOnUse">
<stop stop-color="#FFAA00"/>
<stop offset="1" stop-color="#CE8508"/>
</linearGradient>
</defs>
</svg>
