<svg width="26" height="26" viewBox="0 0 26 26" fill="none" xmlns="http://www.w3.org/2000/svg">
<path opacity="0.4" d="M11.756 2.18816L5.9285 4.3708C4.81599 4.79462 3.90479 6.10845 3.90479 7.30572V15.888C3.90479 16.7462 4.46634 17.8799 5.15504 18.3885L10.9825 22.7432C12.0102 23.5166 13.6949 23.5166 14.7227 22.7432L20.5501 18.3885C21.2388 17.8693 21.8004 16.7462 21.8004 15.888V7.30572C21.8004 6.11904 20.8892 4.79462 19.7767 4.3814L13.9492 2.19875C13.3559 1.96566 12.3599 1.96566 11.756 2.18816Z" fill="url(#paint0_linear_65_123)"/>
<path d="M11.4383 15.0827C11.237 15.0827 11.0357 15.0086 10.8767 14.8496L9.17088 13.1438C8.86361 12.8365 8.86361 12.3279 9.17088 12.0207C9.47814 11.7134 9.98672 11.7134 10.294 12.0207L11.4383 13.165L15.4327 9.17051C15.74 8.86325 16.2486 8.86325 16.5559 9.17051C16.8631 9.47778 16.8631 9.98636 16.5559 10.2936L11.9998 14.8496C11.8409 15.0086 11.6396 15.0827 11.4383 15.0827Z" fill="url(#paint1_linear_65_123)"/>
<defs>
<linearGradient id="paint0_linear_65_123" x1="27.7656" y1="30.0178" x2="-0.0138889" y2="28.5406" gradientUnits="userSpaceOnUse">
<stop stop-color="#FFAA00"/>
<stop offset="1" stop-color="#CE8508"/>
</linearGradient>
<linearGradient id="paint1_linear_65_123" x1="19.4016" y1="17.0133" x2="7.26725" y2="16.0323" gradientUnits="userSpaceOnUse">
<stop stop-color="#FFAA00"/>
<stop offset="1" stop-color="#CE8508"/>
</linearGradient>
</defs>
</svg>
