<svg width="27" height="26" viewBox="0 0 27 26" fill="none" xmlns="http://www.w3.org/2000/svg">
<path opacity="0.4" d="M24.0533 14.8111V17.9798C24.0533 19.7331 22.638 21.1485 20.8846 21.1485H19.8284C19.8284 19.9866 18.8778 19.036 17.7159 19.036C16.5541 19.036 15.6035 19.9866 15.6035 21.1485H11.3785C11.3785 19.9866 10.4279 19.036 9.26609 19.036C8.10423 19.036 7.15363 19.9866 7.15363 21.1485H6.0974C4.34406 21.1485 2.92871 19.7331 2.92871 17.9798V14.8111H14.5472C15.7091 14.8111 16.6597 13.8605 16.6597 12.6987V5.30505H18.6032C19.3637 5.30505 20.0608 5.71699 20.441 6.37186L22.2471 9.52997H20.8846C20.3037 9.52997 19.8284 10.0053 19.8284 10.5862V13.7549C19.8284 14.3358 20.3037 14.8111 20.8846 14.8111H24.0533Z" fill="url(#paint0_linear_65_125)"/>
<path d="M9.26627 23.2609C10.4329 23.2609 11.3787 22.3151 11.3787 21.1485C11.3787 19.9818 10.4329 19.036 9.26627 19.036C8.09959 19.036 7.15381 19.9818 7.15381 21.1485C7.15381 22.3151 8.09959 23.2609 9.26627 23.2609Z" fill="url(#paint1_linear_65_125)"/>
<path d="M17.716 23.2609C18.8827 23.2609 19.8284 22.3151 19.8284 21.1485C19.8284 19.9818 18.8827 19.036 17.716 19.036C16.5493 19.036 15.6035 19.9818 15.6035 21.1485C15.6035 22.3151 16.5493 23.2609 17.716 23.2609Z" fill="url(#paint2_linear_65_125)"/>
<path d="M24.0535 13.2585V14.8112H20.8848C20.3039 14.8112 19.8286 14.3359 19.8286 13.7549V10.5863C19.8286 10.0053 20.3039 9.53003 20.8848 9.53003H22.2474L23.7789 12.2128C23.9585 12.5297 24.0535 12.8889 24.0535 13.2585Z" fill="url(#paint3_linear_65_125)"/>
<path d="M15.6035 2.13635H7.15363C5.09398 2.13635 3.38291 3.61507 3.01323 5.5691H8.20986C8.64291 5.5691 9.00203 5.92822 9.00203 6.36127C9.00203 6.79432 8.64291 7.15344 8.20986 7.15344H2.92871V8.73779H6.0974C6.53045 8.73779 6.88957 9.0969 6.88957 9.52996C6.88957 9.96301 6.53045 10.3221 6.0974 10.3221H2.92871V11.9065H3.98494C4.41799 11.9065 4.77711 12.2656 4.77711 12.6986C4.77711 13.1317 4.41799 13.4908 3.98494 13.4908H2.92871V14.8111H14.5472C15.7091 14.8111 16.6597 13.8605 16.6597 12.6986V3.19258C16.6597 2.61166 16.1844 2.13635 15.6035 2.13635Z" fill="url(#paint4_linear_65_125)"/>
<path d="M3.01348 5.56909H1.87274C1.43968 5.56909 1.08057 5.92821 1.08057 6.36126C1.08057 6.79432 1.43968 7.15344 1.87274 7.15344H2.92897V6.36126C2.92897 6.08664 2.96067 5.82259 3.01348 5.56909Z" fill="url(#paint5_linear_65_125)"/>
<path d="M1.87274 8.73779C1.43968 8.73779 1.08057 9.09691 1.08057 9.52997C1.08057 9.96302 1.43968 10.3221 1.87274 10.3221H2.92897V8.73779H1.87274Z" fill="url(#paint6_linear_65_125)"/>
<path d="M1.87274 11.9065C1.43968 11.9065 1.08057 12.2656 1.08057 12.6987C1.08057 13.1317 1.43968 13.4908 1.87274 13.4908H2.92897V11.9065H1.87274Z" fill="url(#paint7_linear_65_125)"/>
<defs>
<linearGradient id="paint0_linear_65_125" x1="31.0948" y1="26.1279" x2="-1.5572" y2="23.3722" gradientUnits="userSpaceOnUse">
<stop stop-color="#FFAA00"/>
<stop offset="1" stop-color="#CE8508"/>
</linearGradient>
<linearGradient id="paint1_linear_65_125" x1="12.787" y1="24.5888" x2="6.23636" y2="24.1741" gradientUnits="userSpaceOnUse">
<stop stop-color="#FFAA00"/>
<stop offset="1" stop-color="#CE8508"/>
</linearGradient>
<linearGradient id="paint2_linear_65_125" x1="21.2367" y1="24.5888" x2="14.6861" y2="24.1741" gradientUnits="userSpaceOnUse">
<stop stop-color="#FFAA00"/>
<stop offset="1" stop-color="#CE8508"/>
</linearGradient>
<linearGradient id="paint3_linear_65_125" x1="25.4618" y1="16.471" x2="18.9017" y2="16.1388" gradientUnits="userSpaceOnUse">
<stop stop-color="#FFAA00"/>
<stop offset="1" stop-color="#CE8508"/>
</linearGradient>
<linearGradient id="paint4_linear_65_125" x1="21.2367" y1="18.7946" x2="-0.0382651" y2="17.3358" gradientUnits="userSpaceOnUse">
<stop stop-color="#FFAA00"/>
<stop offset="1" stop-color="#CE8508"/>
</linearGradient>
<linearGradient id="paint5_linear_65_125" x1="3.65779" y1="7.65137" x2="0.666658" y2="7.4204" gradientUnits="userSpaceOnUse">
<stop stop-color="#FFAA00"/>
<stop offset="1" stop-color="#CE8508"/>
</linearGradient>
<linearGradient id="paint6_linear_65_125" x1="3.5451" y1="10.8201" x2="0.683305" y2="10.6087" gradientUnits="userSpaceOnUse">
<stop stop-color="#FFAA00"/>
<stop offset="1" stop-color="#CE8508"/>
</linearGradient>
<linearGradient id="paint7_linear_65_125" x1="3.5451" y1="13.9888" x2="0.683305" y2="13.7774" gradientUnits="userSpaceOnUse">
<stop stop-color="#FFAA00"/>
<stop offset="1" stop-color="#CE8508"/>
</linearGradient>
</defs>
</svg>
