<svg width="27" height="27" viewBox="0 0 27 27" fill="none" xmlns="http://www.w3.org/2000/svg">
<path opacity="0.4" d="M21.2691 6.89632H20.8453L17.2641 3.31508C16.978 3.02901 16.5118 3.02901 16.2151 3.31508C15.929 3.60116 15.929 4.06735 16.2151 4.36402L18.7474 6.89632H8.44871L10.981 4.36402C11.2671 4.07795 11.2671 3.61175 10.981 3.31508C10.6949 3.02901 10.2287 3.02901 9.93206 3.31508L6.36142 6.89632H5.9376C4.98402 6.89632 3.00269 6.89632 3.00269 9.60873C3.00269 10.6365 3.21459 11.3146 3.6596 11.7596C3.91389 12.0245 4.22115 12.1622 4.54961 12.2364C4.85688 12.3105 5.18533 12.3211 5.50319 12.3211H21.6929C22.0214 12.3211 22.3286 12.3 22.6253 12.2364C23.5153 12.0245 24.1934 11.3888 24.1934 9.60873C24.1934 6.89632 22.2121 6.89632 21.2691 6.89632Z" fill="url(#paint0_linear_65_132)"/>
<path d="M21.7035 12.3212H5.50314C5.19588 12.3212 4.85683 12.3106 4.54956 12.2258L5.88458 20.3737C6.18125 22.1961 6.9759 24.294 10.5042 24.294H16.4482C20.0188 24.294 20.6545 22.5033 21.036 20.5008L22.6359 12.2258C22.3392 12.3 22.0213 12.3212 21.7035 12.3212ZM13.598 20.5856C11.1187 20.5856 9.09497 18.5619 9.09497 16.0825C9.09497 15.6481 9.45522 15.2879 9.88963 15.2879C10.324 15.2879 10.6843 15.6481 10.6843 16.0825C10.6843 17.693 11.9875 18.9963 13.598 18.9963C15.2085 18.9963 16.5117 17.693 16.5117 16.0825C16.5117 15.6481 16.872 15.2879 17.3064 15.2879C17.7408 15.2879 18.101 15.6481 18.101 16.0825C18.101 18.5619 16.0773 20.5856 13.598 20.5856Z" fill="url(#paint1_linear_65_132)"/>
<defs>
<linearGradient id="paint0_linear_65_132" x1="31.257" y1="15.2191" x2="-1.04702" y2="10.52" gradientUnits="userSpaceOnUse">
<stop stop-color="#FFAA00"/>
<stop offset="1" stop-color="#CE8508"/>
</linearGradient>
<linearGradient id="paint1_linear_65_132" x1="28.6646" y1="28.0868" x2="0.76082" y2="25.4399" gradientUnits="userSpaceOnUse">
<stop stop-color="#FFAA00"/>
<stop offset="1" stop-color="#CE8508"/>
</linearGradient>
</defs>
</svg>
