<svg width="26" height="26" viewBox="0 0 26 26" fill="none" xmlns="http://www.w3.org/2000/svg">
<path d="M17.902 3.77736V2.12449C17.902 1.69008 17.5418 1.32983 17.1073 1.32983C16.6729 1.32983 16.3127 1.69008 16.3127 2.12449V3.71379H9.4257V2.12449C9.4257 1.69008 9.06546 1.32983 8.63105 1.32983C8.19664 1.32983 7.8364 1.69008 7.8364 2.12449V3.77736C4.97565 4.04225 3.58766 5.7481 3.37575 8.28039C3.35456 8.58766 3.60885 8.84195 3.90552 8.84195H21.8329C22.1401 8.84195 22.3944 8.57706 22.3626 8.28039C22.1507 5.7481 20.7627 4.04225 17.902 3.77736Z" fill="url(#paint0_linear_65_131)"/>
<path opacity="0.4" d="M22.4049 11.4908V13.3344C22.4049 13.9807 21.8328 14.4787 21.197 14.3727C20.9004 14.3304 20.5931 14.2986 20.2858 14.2986C17.0754 14.2986 14.4584 16.9156 14.4584 20.126C14.4584 20.6134 14.6491 21.2915 14.8504 21.9061C15.0835 22.5948 14.5749 23.3046 13.8439 23.3046H8.63094C4.92256 23.3046 3.33325 21.1856 3.33325 18.0069V11.4802C3.33325 10.8974 3.81004 10.4207 4.39279 10.4207H21.3454C21.9281 10.4312 22.4049 10.9081 22.4049 11.4908Z" fill="url(#paint1_linear_65_131)"/>
<path d="M20.286 15.8985C17.9444 15.8985 16.0479 17.7951 16.0479 20.1366C16.0479 20.9313 16.2704 21.6836 16.6624 22.3193C17.3935 23.5484 18.7391 24.3748 20.286 24.3748C21.8329 24.3748 23.1785 23.5484 23.9096 22.3193C24.3016 21.6836 24.5241 20.9313 24.5241 20.1366C24.5241 17.7951 22.6276 15.8985 20.286 15.8985ZM22.4792 19.6811L20.2224 21.7683C20.0741 21.9061 19.8728 21.9802 19.6821 21.9802C19.4808 21.9802 19.2794 21.9061 19.1205 21.7471L18.0716 20.6982C17.7643 20.3909 17.7643 19.8824 18.0716 19.5751C18.3788 19.2678 18.8874 19.2678 19.1947 19.5751L19.7033 20.0837L21.3985 18.5156C21.7164 18.2189 22.225 18.2401 22.5216 18.5579C22.8183 18.8758 22.7971 19.3738 22.4792 19.6811Z" fill="url(#paint2_linear_65_131)"/>
<path d="M9.16086 15.8985C8.88538 15.8985 8.6099 15.7819 8.40859 15.5912C8.21787 15.3899 8.10132 15.1144 8.10132 14.8389C8.10132 14.5634 8.21787 14.288 8.40859 14.0867C8.65228 13.843 9.02311 13.7264 9.37276 13.8006C9.43633 13.8112 9.4999 13.8323 9.56348 13.8641C9.62705 13.8853 9.69062 13.9171 9.75419 13.9595C9.80717 14.0019 9.86015 14.0443 9.91313 14.0867C10.1038 14.288 10.2204 14.5634 10.2204 14.8389C10.2204 15.1144 10.1038 15.3899 9.91313 15.5912C9.86015 15.6336 9.80717 15.6759 9.75419 15.7183C9.69062 15.7607 9.62705 15.7925 9.56348 15.8137C9.4999 15.8455 9.43633 15.8667 9.37276 15.8773C9.29859 15.8879 9.22443 15.8985 9.16086 15.8985Z" fill="url(#paint3_linear_65_131)"/>
<path d="M12.8691 15.8985C12.5936 15.8985 12.3181 15.7819 12.1168 15.5912C11.9261 15.3899 11.8096 15.1144 11.8096 14.8389C11.8096 14.5635 11.9261 14.288 12.1168 14.0867C12.5195 13.6947 13.2293 13.6947 13.6214 14.0867C13.8121 14.288 13.9286 14.5635 13.9286 14.8389C13.9286 15.1144 13.8121 15.3899 13.6214 15.5912C13.4201 15.7819 13.1446 15.8985 12.8691 15.8985Z" fill="url(#paint4_linear_65_131)"/>
<path d="M9.16086 19.6069C8.88538 19.6069 8.6099 19.4903 8.40859 19.2996C8.21787 19.0983 8.10132 18.8228 8.10132 18.5473C8.10132 18.2718 8.21787 17.9964 8.40859 17.7951C8.51454 17.6997 8.62049 17.6255 8.75823 17.5725C9.15026 17.403 9.61646 17.4984 9.91313 17.7951C10.1038 17.9964 10.2204 18.2718 10.2204 18.5473C10.2204 18.8228 10.1038 19.0983 9.91313 19.2996C9.71181 19.4903 9.43634 19.6069 9.16086 19.6069Z" fill="url(#paint5_linear_65_131)"/>
<defs>
<linearGradient id="paint0_linear_65_131" x1="28.6956" y1="11.2029" x2="-0.12933" y2="6.59057" gradientUnits="userSpaceOnUse">
<stop stop-color="#FFAA00"/>
<stop offset="1" stop-color="#CE8508"/>
</linearGradient>
<linearGradient id="paint1_linear_65_131" x1="28.7621" y1="27.3539" x2="-0.668318" y2="24.5964" gradientUnits="userSpaceOnUse">
<stop stop-color="#FFAA00"/>
<stop offset="1" stop-color="#CE8508"/>
</linearGradient>
<linearGradient id="paint2_linear_65_131" x1="27.3496" y1="27.0388" x2="14.2072" y2="26.2069" gradientUnits="userSpaceOnUse">
<stop stop-color="#FFAA00"/>
<stop offset="1" stop-color="#CE8508"/>
</linearGradient>
<linearGradient id="paint3_linear_65_131" x1="10.9268" y1="16.5647" x2="7.64114" y2="16.3569" gradientUnits="userSpaceOnUse">
<stop stop-color="#FFAA00"/>
<stop offset="1" stop-color="#CE8508"/>
</linearGradient>
<linearGradient id="paint4_linear_65_131" x1="14.635" y1="16.5603" x2="11.3496" y2="16.3511" gradientUnits="userSpaceOnUse">
<stop stop-color="#FFAA00"/>
<stop offset="1" stop-color="#CE8508"/>
</linearGradient>
<linearGradient id="paint5_linear_65_131" x1="10.9268" y1="20.2725" x2="7.64117" y2="20.0644" gradientUnits="userSpaceOnUse">
<stop stop-color="#FFAA00"/>
<stop offset="1" stop-color="#CE8508"/>
</linearGradient>
</defs>
</svg>
