<svg width="200" height="200" viewBox="0 0 200 200" fill="none" xmlns="http://www.w3.org/2000/svg">
<path d="M75 158.333C75 165.333 76.0833 172.167 78.0833 178.5C46.0833 167.417 21.9167 138 19.4167 103.583C16.9167 67 38 32.8333 72.0833 18.5C80.9167 14.8333 85.4167 17.5 87.3333 19.4167C89.1667 21.25 91.75 25.6667 88.0833 34.0833C84.3333 42.75 82.5 51.9167 82.5 61.4167C82.5833 78.4167 89.25 94.1667 100.083 106.25C84.8333 118.417 75 137.25 75 158.333Z" fill="#FFAA00"/>
<path opacity="0.4" d="M176.75 147.667C160.25 170.083 134.083 183.25 106.167 183.25C104.833 183.25 103.5 183.167 102.167 183.083C93.8333 182.75 85.75 181.167 78.0833 178.5C76.0833 172.167 75 165.333 75 158.333C75 137.25 84.8333 118.417 100.083 106.25C112.333 120 129.917 128.917 149.333 129.75C154.583 130 159.833 129.583 165 128.667C174.333 127 178.083 130.5 179.417 132.75C180.833 135 182.333 139.917 176.75 147.667Z" fill="#FFAA00"/>
</svg>
