<svg width="26" height="27" viewBox="0 0 26 27" fill="none" xmlns="http://www.w3.org/2000/svg">
<path opacity="0.4" d="M15.0247 6.28182V11.5795H13.9652C12.217 11.5795 10.7866 13.0099 10.7866 14.7581V15.8177H5.48891C3.73008 15.8177 2.3103 14.3979 2.3103 12.639V6.28182C2.3103 4.52299 3.73008 3.10321 5.48891 3.10321H11.8461C13.605 3.10321 15.0247 4.52299 15.0247 6.28182Z" fill="url(#paint0_linear_65_264)"/>
<path d="M5.70061 8.00886C5.45692 8.00886 5.20263 7.8923 5.0543 7.6698C4.80001 7.30956 4.88477 6.81159 5.24501 6.5573C6.07145 5.97455 7.18396 5.96394 8.021 6.53609C8.38124 6.77978 8.4766 7.27781 8.23291 7.63805C7.98921 7.99829 7.49123 8.0936 7.13099 7.8499C6.84491 7.65919 6.46348 7.6592 6.17741 7.86051C6.01848 7.96646 5.85954 8.00886 5.70061 8.00886Z" fill="url(#paint1_linear_65_264)"/>
<path d="M9.93889 8.00886C9.6952 8.00886 9.44091 7.8923 9.29258 7.6698C9.03829 7.30956 9.12305 6.81159 9.48329 6.5573C10.3097 5.97455 11.4222 5.96394 12.2593 6.53609C12.6195 6.77978 12.7149 7.27781 12.4712 7.63805C12.2275 7.99829 11.7295 8.0936 11.3693 7.8499C11.0832 7.65919 10.7018 7.6592 10.4157 7.86051C10.2568 7.96646 10.0978 8.00886 9.93889 8.00886Z" fill="url(#paint2_linear_65_264)"/>
<path d="M8.83714 13.8786H6.37901C5.62674 13.8786 5.01221 13.2641 5.01221 12.5119C5.01221 10.4987 6.65449 8.85645 8.66761 8.85645C9.49405 8.85645 10.3099 9.14253 10.9562 9.6617C11.2953 9.93718 11.3588 10.4352 11.0834 10.7742C10.8079 11.1133 10.3099 11.1768 9.97084 10.9013C9.6 10.6047 9.155 10.4458 8.6782 10.4458C7.61867 10.4458 6.73925 11.251 6.6227 12.2893H8.84773C9.28214 12.2893 9.64238 12.6496 9.64238 13.084C9.64238 13.5184 9.27155 13.8786 8.83714 13.8786Z" fill="url(#paint3_linear_65_264)"/>
<path d="M19.4958 18.6572C19.4217 18.5725 19.3157 18.5301 19.1992 18.5301H15.0882C14.9716 18.5301 14.8657 18.5725 14.7915 18.6572C14.7173 18.742 14.6749 18.8585 14.6961 18.9645C14.8339 20.2147 15.8828 21.1683 17.1437 21.1683C18.4045 21.1683 19.4535 20.2253 19.5912 18.9645C19.6018 18.8479 19.57 18.742 19.4958 18.6572Z" fill="url(#paint4_linear_65_264)"/>
<path d="M20.3225 11.5795H13.9652C12.217 11.5795 10.7866 13.0099 10.7866 14.7581V21.1154C10.7866 22.8636 12.217 24.294 13.9652 24.294H20.3225C22.0707 24.294 23.5011 22.8636 23.5011 21.1154V14.7581C23.5011 13.0099 22.0707 11.5795 20.3225 11.5795ZM13.5308 14.9382C13.7851 14.578 14.2831 14.4932 14.6433 14.7475C14.9294 14.9488 15.3108 14.9489 15.5969 14.7581C15.9572 14.5039 16.4551 14.5992 16.6988 14.9701C16.9425 15.3303 16.8578 15.8283 16.4869 16.072C16.0737 16.3474 15.5969 16.4958 15.1201 16.4958C14.6221 16.4958 14.1348 16.3474 13.7215 16.0507C13.3613 15.7859 13.2765 15.2879 13.5308 14.9382ZM17.1438 22.355C15.1307 22.355 13.4884 20.7127 13.4884 18.6996C13.4884 17.9473 14.103 17.3328 14.8552 17.3328H19.4324C20.1847 17.3328 20.7992 17.9473 20.7992 18.6996C20.7992 20.7127 19.157 22.355 17.1438 22.355ZM20.7251 16.0613C20.3119 16.3368 19.8351 16.4852 19.3583 16.4852C18.8603 16.4852 18.3729 16.3369 17.9597 16.0402C17.5994 15.7859 17.5147 15.2879 17.769 14.9276C18.0233 14.5674 18.5212 14.4826 18.8815 14.7369C19.1676 14.9382 19.549 14.9383 19.8351 14.7475C20.1953 14.4932 20.6933 14.5886 20.937 14.9595C21.1807 15.3303 21.0853 15.8177 20.7251 16.0613Z" fill="url(#paint5_linear_65_264)"/>
<defs>
<linearGradient id="paint0_linear_65_264" x1="19.2629" y1="19.8136" x2="-0.450668" y2="18.5659" gradientUnits="userSpaceOnUse">
<stop stop-color="#FFAA00"/>
<stop offset="1" stop-color="#CE8508"/>
</linearGradient>
<linearGradient id="paint1_linear_65_264" x1="9.52134" y1="8.60454" x2="4.2058" y2="7.9903" gradientUnits="userSpaceOnUse">
<stop stop-color="#FFAA00"/>
<stop offset="1" stop-color="#CE8508"/>
</linearGradient>
<linearGradient id="paint2_linear_65_264" x1="13.7596" y1="8.60454" x2="8.44409" y2="7.9903" gradientUnits="userSpaceOnUse">
<stop stop-color="#FFAA00"/>
<stop offset="1" stop-color="#CE8508"/>
</linearGradient>
<linearGradient id="paint3_linear_65_264" x1="13.3369" y1="15.457" x2="3.67743" y2="14.697" gradientUnits="userSpaceOnUse">
<stop stop-color="#FFAA00"/>
<stop offset="1" stop-color="#CE8508"/>
</linearGradient>
<linearGradient id="paint4_linear_65_264" x1="21.2273" y1="21.9975" x2="13.6998" y2="21.1121" gradientUnits="userSpaceOnUse">
<stop stop-color="#FFAA00"/>
<stop offset="1" stop-color="#CE8508"/>
</linearGradient>
<linearGradient id="paint5_linear_65_264" x1="27.7392" y1="28.2899" x2="8.02565" y2="27.0422" gradientUnits="userSpaceOnUse">
<stop stop-color="#FFAA00"/>
<stop offset="1" stop-color="#CE8508"/>
</linearGradient>
</defs>
</svg>
