<svg width="200" height="200" viewBox="0 0 200 200" fill="none" xmlns="http://www.w3.org/2000/svg">
<path opacity="0.4" d="M100 158.333C132.217 158.333 158.333 132.217 158.333 100C158.333 67.7834 132.217 41.6667 100 41.6667C67.7835 41.6667 41.6667 67.7834 41.6667 100C41.6667 132.217 67.7835 158.333 100 158.333Z" fill="#FFAA00"/>
<path d="M99.9999 191.333C95.4166 191.333 91.6666 187.917 91.6666 183.333V182.667C91.6666 178.083 95.4166 174.333 99.9999 174.333C104.583 174.333 108.333 178.083 108.333 182.667C108.333 187.25 104.583 191.333 99.9999 191.333ZM159.5 167.833C157.333 167.833 155.25 167 153.583 165.417L152.5 164.333C149.25 161.083 149.25 155.833 152.5 152.583C155.75 149.333 161 149.333 164.25 152.583L165.333 153.667C168.583 156.917 168.583 162.167 165.333 165.417C163.75 167 161.667 167.833 159.5 167.833ZM40.4999 167.833C38.3333 167.833 36.2499 167 34.5833 165.417C31.3333 162.167 31.3333 156.917 34.5833 153.667L35.6666 152.583C38.9166 149.333 44.1666 149.333 47.4166 152.583C50.6666 155.833 50.6666 161.083 47.4166 164.333L46.3333 165.417C44.7499 167 42.5833 167.833 40.4999 167.833ZM183.333 108.333H182.667C178.083 108.333 174.333 104.583 174.333 100C174.333 95.4167 178.083 91.6667 182.667 91.6667C187.25 91.6667 191.333 95.4167 191.333 100C191.333 104.583 187.917 108.333 183.333 108.333ZM17.3333 108.333H16.6666C12.0833 108.333 8.33325 104.583 8.33325 100C8.33325 95.4167 12.0833 91.6667 16.6666 91.6667C21.2499 91.6667 25.3333 95.4167 25.3333 100C25.3333 104.583 21.9166 108.333 17.3333 108.333ZM158.417 49.9166C156.25 49.9166 154.167 49.0833 152.5 47.5C149.25 44.25 149.25 39 152.5 35.75L153.583 34.6666C156.833 31.4166 162.083 31.4166 165.333 34.6666C168.583 37.9166 168.583 43.1667 165.333 46.4167L164.25 47.5C162.667 49.0833 160.583 49.9166 158.417 49.9166ZM41.5833 49.9166C39.4166 49.9166 37.3333 49.0833 35.6666 47.5L34.5833 46.3333C31.3333 43.0833 31.3333 37.8333 34.5833 34.5833C37.8333 31.3333 43.0833 31.3333 46.3333 34.5833L47.4166 35.6667C50.6666 38.9167 50.6666 44.1666 47.4166 47.4166C45.8333 49.0833 43.6666 49.9166 41.5833 49.9166ZM99.9999 25.3333C95.4166 25.3333 91.6666 21.9166 91.6666 17.3333V16.6666C91.6666 12.0833 95.4166 8.33331 99.9999 8.33331C104.583 8.33331 108.333 12.0833 108.333 16.6666C108.333 21.25 104.583 25.3333 99.9999 25.3333Z" fill="#FFAA00"/>
</svg>
